<mxfile host="app.diagrams.net" modified="2024-03-08T19:33:53.055Z" agent="Mozilla/5.0 (X11; Ubuntu; Linux x86_64; rv:123.0) Gecko/20100101 Firefox/123.0" etag="fnfyLbaRUoBGY5m3Bqui" version="24.0.2" type="device">
  <diagram id="R2lEEEUBdFMjLlhIrx00" name="Page-1">
    <mxGraphModel dx="1137" dy="638" grid="1" gridSize="10" guides="1" tooltips="1" connect="1" arrows="1" fold="1" page="1" pageScale="1" pageWidth="850" pageHeight="1100" math="0" shadow="0" extFonts="Permanent Marker^https://fonts.googleapis.com/css?family=Permanent+Marker">
      <root>
        <mxCell id="0" />
        <mxCell id="1" parent="0" />
        <mxCell id="07s9dqfnNiP7TXrj1Moa-206" value="" style="rounded=0;whiteSpace=wrap;html=1;fillColor=none;strokeColor=none;" vertex="1" parent="1">
          <mxGeometry x="100" y="185" width="390" height="540" as="geometry" />
        </mxCell>
        <mxCell id="07s9dqfnNiP7TXrj1Moa-175" value="Čitateľ" style="shape=umlActor;verticalLabelPosition=bottom;verticalAlign=top;html=1;" vertex="1" parent="1">
          <mxGeometry x="170" y="340" width="30" height="60" as="geometry" />
        </mxCell>
        <mxCell id="07s9dqfnNiP7TXrj1Moa-180" style="edgeStyle=orthogonalEdgeStyle;rounded=0;orthogonalLoop=1;jettySize=auto;html=1;" edge="1" parent="1">
          <mxGeometry relative="1" as="geometry">
            <mxPoint x="184.83" y="530" as="sourcePoint" />
            <mxPoint x="184.83" y="420" as="targetPoint" />
          </mxGeometry>
        </mxCell>
        <mxCell id="07s9dqfnNiP7TXrj1Moa-176" value="Pracovník" style="shape=umlActor;verticalLabelPosition=bottom;verticalAlign=top;html=1;" vertex="1" parent="1">
          <mxGeometry x="170" y="540" width="30" height="60" as="geometry" />
        </mxCell>
        <mxCell id="07s9dqfnNiP7TXrj1Moa-177" value="&lt;font style=&quot;font-size: 10px;&quot;&gt;Vyhladanie exemplárov&lt;/font&gt;" style="ellipse;whiteSpace=wrap;html=1;" vertex="1" parent="1">
          <mxGeometry x="335" y="280" width="100" height="30" as="geometry" />
        </mxCell>
        <mxCell id="07s9dqfnNiP7TXrj1Moa-181" value="&lt;font style=&quot;font-size: 10px;&quot;&gt;Rezervácia exemplárov&lt;/font&gt;" style="ellipse;whiteSpace=wrap;html=1;" vertex="1" parent="1">
          <mxGeometry x="335" y="320" width="100" height="30" as="geometry" />
        </mxCell>
        <mxCell id="07s9dqfnNiP7TXrj1Moa-182" value="&lt;font style=&quot;font-size: 10px;&quot;&gt;Vyzdvihnutie exemplárov&lt;/font&gt;" style="ellipse;whiteSpace=wrap;html=1;" vertex="1" parent="1">
          <mxGeometry x="335" y="360" width="100" height="30" as="geometry" />
        </mxCell>
        <mxCell id="07s9dqfnNiP7TXrj1Moa-183" value="&lt;font style=&quot;font-size: 10px;&quot;&gt;Vrátenie exemplárov&lt;/font&gt;" style="ellipse;whiteSpace=wrap;html=1;" vertex="1" parent="1">
          <mxGeometry x="335" y="400" width="100" height="30" as="geometry" />
        </mxCell>
        <mxCell id="07s9dqfnNiP7TXrj1Moa-184" value="&lt;font style=&quot;font-size: 10px;&quot;&gt;Zrušenie rezervácií&lt;/font&gt;" style="ellipse;whiteSpace=wrap;html=1;" vertex="1" parent="1">
          <mxGeometry x="335" y="440" width="100" height="30" as="geometry" />
        </mxCell>
        <mxCell id="07s9dqfnNiP7TXrj1Moa-194" value="" style="endArrow=none;html=1;rounded=0;entryX=0;entryY=0.5;entryDx=0;entryDy=0;" edge="1" parent="1" source="07s9dqfnNiP7TXrj1Moa-175" target="07s9dqfnNiP7TXrj1Moa-177">
          <mxGeometry width="50" height="50" relative="1" as="geometry">
            <mxPoint x="270" y="410" as="sourcePoint" />
            <mxPoint x="320" y="360" as="targetPoint" />
          </mxGeometry>
        </mxCell>
        <mxCell id="07s9dqfnNiP7TXrj1Moa-195" value="" style="endArrow=none;html=1;rounded=0;entryX=0;entryY=0.5;entryDx=0;entryDy=0;" edge="1" parent="1" source="07s9dqfnNiP7TXrj1Moa-175" target="07s9dqfnNiP7TXrj1Moa-181">
          <mxGeometry width="50" height="50" relative="1" as="geometry">
            <mxPoint x="200" y="360" as="sourcePoint" />
            <mxPoint x="345" y="305" as="targetPoint" />
          </mxGeometry>
        </mxCell>
        <mxCell id="07s9dqfnNiP7TXrj1Moa-196" value="" style="endArrow=none;html=1;rounded=0;entryX=0;entryY=0.5;entryDx=0;entryDy=0;" edge="1" parent="1" source="07s9dqfnNiP7TXrj1Moa-175" target="07s9dqfnNiP7TXrj1Moa-182">
          <mxGeometry width="50" height="50" relative="1" as="geometry">
            <mxPoint x="220" y="380" as="sourcePoint" />
            <mxPoint x="345" y="345" as="targetPoint" />
          </mxGeometry>
        </mxCell>
        <mxCell id="07s9dqfnNiP7TXrj1Moa-197" value="" style="endArrow=none;html=1;rounded=0;entryX=0;entryY=0.5;entryDx=0;entryDy=0;" edge="1" parent="1" source="07s9dqfnNiP7TXrj1Moa-175" target="07s9dqfnNiP7TXrj1Moa-183">
          <mxGeometry width="50" height="50" relative="1" as="geometry">
            <mxPoint x="200" y="395" as="sourcePoint" />
            <mxPoint x="335" y="390" as="targetPoint" />
          </mxGeometry>
        </mxCell>
        <mxCell id="07s9dqfnNiP7TXrj1Moa-199" value="" style="endArrow=none;html=1;rounded=0;entryX=0;entryY=0.5;entryDx=0;entryDy=0;" edge="1" parent="1" source="07s9dqfnNiP7TXrj1Moa-175" target="07s9dqfnNiP7TXrj1Moa-184">
          <mxGeometry width="50" height="50" relative="1" as="geometry">
            <mxPoint x="200" y="410" as="sourcePoint" />
            <mxPoint x="335" y="450" as="targetPoint" />
          </mxGeometry>
        </mxCell>
        <mxCell id="07s9dqfnNiP7TXrj1Moa-200" value="" style="endArrow=none;html=1;rounded=0;entryX=0;entryY=0.5;entryDx=0;entryDy=0;" edge="1" target="07s9dqfnNiP7TXrj1Moa-201" parent="1">
          <mxGeometry width="50" height="50" relative="1" as="geometry">
            <mxPoint x="200" y="566" as="sourcePoint" />
            <mxPoint x="345" y="505" as="targetPoint" />
          </mxGeometry>
        </mxCell>
        <mxCell id="07s9dqfnNiP7TXrj1Moa-201" value="&lt;div style=&quot;font-size: 11px;&quot;&gt;&lt;font style=&quot;font-size: 10px;&quot;&gt;Spravovanie&lt;/font&gt;&lt;/div&gt;&lt;div style=&quot;font-size: 10px;&quot;&gt;exemplárov&lt;br&gt;&lt;/div&gt;" style="ellipse;whiteSpace=wrap;html=1;" vertex="1" parent="1">
          <mxGeometry x="335" y="520" width="100" height="30" as="geometry" />
        </mxCell>
        <mxCell id="07s9dqfnNiP7TXrj1Moa-202" value="" style="endArrow=none;html=1;rounded=0;entryX=0;entryY=0.5;entryDx=0;entryDy=0;" edge="1" target="07s9dqfnNiP7TXrj1Moa-204" parent="1">
          <mxGeometry width="50" height="50" relative="1" as="geometry">
            <mxPoint x="200" y="570" as="sourcePoint" />
            <mxPoint x="345" y="545" as="targetPoint" />
          </mxGeometry>
        </mxCell>
        <mxCell id="07s9dqfnNiP7TXrj1Moa-203" value="" style="endArrow=none;html=1;rounded=0;entryX=0;entryY=0.5;entryDx=0;entryDy=0;" edge="1" target="07s9dqfnNiP7TXrj1Moa-205" parent="1">
          <mxGeometry width="50" height="50" relative="1" as="geometry">
            <mxPoint x="200" y="575" as="sourcePoint" />
            <mxPoint x="335" y="590" as="targetPoint" />
          </mxGeometry>
        </mxCell>
        <mxCell id="07s9dqfnNiP7TXrj1Moa-204" value="&lt;div style=&quot;font-size: 10px;&quot;&gt;&lt;font style=&quot;font-size: 10px;&quot;&gt;Spravovanie &lt;br style=&quot;font-size: 10px;&quot;&gt;&lt;/font&gt;&lt;/div&gt;&lt;div style=&quot;font-size: 10px;&quot;&gt;&lt;font style=&quot;font-size: 10px;&quot;&gt;&lt;font style=&quot;font-size: 10px;&quot;&gt;rezervácií&lt;/font&gt;&lt;font style=&quot;font-size: 10px;&quot;&gt;&lt;br style=&quot;font-size: 10px;&quot;&gt;&lt;/font&gt;&lt;/font&gt;&lt;/div&gt;" style="ellipse;whiteSpace=wrap;html=1;fontSize=10;" vertex="1" parent="1">
          <mxGeometry x="335" y="560" width="100" height="30" as="geometry" />
        </mxCell>
        <mxCell id="07s9dqfnNiP7TXrj1Moa-205" value="Spravovanie požičania" style="ellipse;whiteSpace=wrap;html=1;fontSize=10;" vertex="1" parent="1">
          <mxGeometry x="335" y="600" width="100" height="30" as="geometry" />
        </mxCell>
      </root>
    </mxGraphModel>
  </diagram>
</mxfile>
